<svg aria-hidden="true" style="position: absolute; width: 0; height: 0; overflow: hidden;" version="1.1" xmlns="http://www.w3.org/2000/svg" xmlns:xlink="http://www.w3.org/1999/xlink">
<defs>
<symbol id="icon-facebook" viewBox="0 0 32 32">
<path d="M12.135 31.588v-10.64h-3.299v-4.889h3.299v-2.107c0-5.447 2.464-7.971 7.811-7.971 0.535 0 1.273 0.056 1.957 0.137 0.579 0.060 1.096 0.152 1.601 0.277l-0.079-0.017v4.433c-0.252-0.025-0.555-0.042-0.86-0.048l-0.010-0c-0.276-0.008-0.601-0.012-0.927-0.012-0.018 0-0.035 0-0.053 0h0.003c-0.943 0-1.679 0.128-2.233 0.412-0.377 0.192-0.684 0.475-0.9 0.82l-0.006 0.009c-0.344 0.56-0.499 1.327-0.499 2.336v1.729h5.225l-0.897 4.889h-4.328v10.993c7.923-0.957 14.061-7.703 14.061-15.883 0-8.836-7.164-16-16-16s-16 7.164-16 16c0 7.504 5.165 13.8 12.135 15.529z"></path>
</symbol>
<symbol id="icon-instagram" viewBox="0 0 32 32">
<path d="M9.373 0.112c-1.702 0.080-2.865 0.352-3.881 0.751-1.052 0.41-1.943 0.96-2.83 1.85s-1.433 1.782-1.84 2.836c-0.394 1.018-0.661 2.182-0.736 3.885s-0.092 2.251-0.083 6.596c0.008 4.345 0.027 4.889 0.11 6.596 0.081 1.702 0.352 2.864 0.751 3.881 0.411 1.052 0.96 1.943 1.851 2.83s1.782 1.432 2.838 1.84c1.018 0.393 2.181 0.661 3.885 0.736s2.251 0.092 6.595 0.084c4.344-0.008 4.891-0.028 6.597-0.109s2.863-0.354 3.88-0.751c1.052-0.411 1.944-0.96 2.83-1.851s1.433-1.784 1.839-2.838c0.394-1.018 0.662-2.181 0.736-3.883 0.075-1.708 0.092-2.253 0.084-6.597s-0.028-4.889-0.109-6.595-0.352-2.865-0.751-3.882c-0.411-1.052-0.96-1.942-1.85-2.83s-1.784-1.434-2.837-1.839c-1.018-0.394-2.181-0.662-3.885-0.736s-2.251-0.093-6.597-0.084c-4.345 0.008-4.889 0.027-6.596 0.11zM9.56 29.036c-1.56-0.068-2.407-0.327-2.972-0.544-0.747-0.288-1.28-0.636-1.843-1.193s-0.908-1.091-1.2-1.837c-0.219-0.565-0.483-1.411-0.556-2.971-0.079-1.686-0.096-2.192-0.105-6.464s0.007-4.777 0.081-6.464c0.067-1.559 0.327-2.407 0.544-2.971 0.288-0.748 0.635-1.28 1.193-1.842s1.091-0.909 1.838-1.2c0.564-0.22 1.41-0.482 2.969-0.556 1.687-0.080 2.193-0.096 6.464-0.105s4.778 0.007 6.466 0.081c1.559 0.068 2.407 0.326 2.971 0.544 0.748 0.288 1.28 0.634 1.842 1.193s0.909 1.090 1.201 1.838c0.22 0.562 0.482 1.408 0.556 2.968 0.080 1.687 0.099 2.193 0.106 6.464s-0.007 4.778-0.081 6.464c-0.068 1.56-0.327 2.407-0.544 2.973-0.288 0.747-0.635 1.28-1.194 1.842s-1.091 0.908-1.838 1.2c-0.563 0.22-1.41 0.482-2.968 0.557-1.687 0.079-2.193 0.096-6.466 0.105s-4.777-0.008-6.464-0.081zM22.604 7.449c0.002 1.059 0.861 1.917 1.92 1.917 1.060 0 1.92-0.86 1.92-1.92s-0.86-1.92-1.92-1.92c-0.001 0-0.003 0-0.004 0h0c-1.059 0.002-1.916 0.861-1.916 1.92 0 0.001 0 0.002 0 0.003v-0zM7.785 16.016c0.009 4.538 3.694 8.208 8.231 8.199s8.209-3.693 8.201-8.231c-0.009-4.538-3.695-8.209-8.232-8.2s-8.208 3.695-8.199 8.232zM10.667 16.010c0-0.003 0-0.007 0-0.011 0-2.946 2.388-5.333 5.333-5.333s5.333 2.388 5.333 5.333c0 2.942-2.382 5.327-5.322 5.333h-0.001c-0.003 0-0.007 0-0.011 0-2.942 0-5.327-2.382-5.333-5.322v-0.001z"></path>
</symbol>
<symbol id="mail" viewBox="0 0 32 32">
<path fill="#fff" stroke="#9da4bd" style="stroke: var(--color1, #9da4bd)" stroke-linejoin="round" stroke-linecap="round" stroke-miterlimit="4" stroke-width="1.3333" d="M6.4 6.667h19.2c1.32 0 2.4 1.050 2.4 2.333v14c0 1.283-1.080 2.333-2.4 2.333h-19.2c-1.32 0-2.4-1.050-2.4-2.333v-14c0-1.283 1.080-2.333 2.4-2.333z"></path>
<path fill="#fff" stroke="#9da4bd" style="stroke: var(--color1, #9da4bd)" stroke-linejoin="round" stroke-linecap="round" stroke-miterlimit="4" stroke-width="1.3333" d="M26.667 9.333l-10.667 8-10.667-8"></path>
</symbol>
<symbol id="map-pin" viewBox="0 0 32 32">
<path fill="#000" stroke="#9da4bd" style="stroke: var(--color1, #9da4bd)" stroke-linejoin="round" stroke-linecap="round" stroke-miterlimit="4" stroke-width="1.3333" d="M26.667 13.818c0 7.636-10.667 14.182-10.667 14.182s-10.667-6.545-10.667-14.182c0-5.422 4.776-9.818 10.667-9.818s10.667 4.396 10.667 9.818v0z"></path>
<path fill="#000" stroke="#9da4bd" style="stroke: var(--color1, #9da4bd)" stroke-linejoin="round" stroke-linecap="round" stroke-miterlimit="4" stroke-width="1.3333" d="M16 18.667c2.209 0 4-1.791 4-4s-1.791-4-4-4-4 1.791-4 4c0 2.209 1.791 4 4 4z"></path>
</symbol>
<symbol id="phone" viewBox="0 0 32 32">
<path fill="#fff" stroke="#9da4bd" style="stroke: var(--color1, #9da4bd)" stroke-linejoin="round" stroke-linecap="round" stroke-miterlimit="4" stroke-width="1.3333" d="M26.666 21.337v3.218c0.002 0.604-0.25 1.181-0.695 1.589s-1.042 0.61-1.643 0.556c-3.301-0.359-6.471-1.487-9.257-3.293-2.592-1.647-4.789-3.844-6.436-6.436-1.813-2.798-2.941-5.984-3.293-9.3-0.054-0.6 0.146-1.195 0.552-1.639s0.98-0.698 1.582-0.699h3.218c1.077-0.011 1.995 0.779 2.145 1.845 0.136 1.030 0.388 2.041 0.751 3.014 0.295 0.784 0.106 1.668-0.483 2.263l-1.362 1.362c1.527 2.685 3.75 4.909 6.436 6.436l1.362-1.362c0.596-0.589 1.479-0.777 2.263-0.483 0.973 0.363 1.984 0.615 3.014 0.751 1.079 0.152 1.872 1.088 1.845 2.177z"></path>
</symbol>
<symbol id="icon-booksy-seeklogocom" viewBox="0 0 143 32">
<path d="M129.354 7.381c0.43-0.002 0.861-0.004 1.291 0 1.158 0.010 1.254 0.146 0.833 1.182-0.693 1.704-1.385 3.409-2.084 5.111-1.57 3.83-3.144 7.658-4.716 11.487-0.363 0.884-0.777 1.741-1.326 2.529-1.113 1.596-2.598 2.45-4.603 2.428-1.146-0.013-2.232-0.195-3.288-0.612-0.672-0.265-0.974-0.439-0.559-1.234 0.167-0.32 0.274-0.669 0.425-0.997 0.402-0.873 0.444-0.878 1.334-0.56 0.403 0.144 0.816 0.286 1.236 0.347 1.311 0.189 2.311-0.269 3.015-1.421 0.461-0.756 0.598-1.402 0.182-2.282-2.249-4.753-4.422-9.542-6.62-14.319-0.137-0.298-0.277-0.597-0.39-0.904-0.167-0.456-0.034-0.693 0.449-0.736 0.427-0.038 0.86-0.008 1.291-0.008 1.958 0.006 1.539-0.196 2.289 1.492 1.503 3.382 2.977 6.776 4.473 10.16l0.311 0.632c0 0 0.098 0.203 0.221 0.203s0.303 0.021 0.442-0.227c0.054-0.096 0.114-0.238 0.168-0.377 0.014-0.056 0.029-0.109 0.047-0.157 1.421-3.605 2.812-7.222 4.22-10.832 0.352-0.903 0.365-0.898 1.361-0.903zM105.195 14.077c1.184 0.411 2.413 0.685 3.574 1.17 0.924 0.386 1.784 0.858 2.489 1.578 1.708 1.745 1.396 5.006-0.428 6.677-1.136 1.041-2.497 1.565-4.034 1.665-2.487 0.162-4.787-0.426-6.91-1.708-1.494-0.902-1.522-0.99-0.517-2.343 0.68-0.916 0.592-1.328 1.997-0.377 1.6 1.083 3.388 1.605 5.351 1.437 0.719-0.062 1.36-0.276 1.863-0.803 0.83-0.869 0.715-2.019-0.265-2.718-0.684-0.488-1.49-0.7-2.273-0.954-0.721-0.234-1.459-0.417-2.184-0.638-0.761-0.232-1.482-0.561-2.177-0.946-2.95-1.633-2.791-5.204-1.017-7.094 1.088-1.159 2.451-1.749 4.034-1.852 0.329-0.021 0.661-0.003 0.992-0.003 2.046-0.074 3.903 0.562 5.659 1.539 0.725 0.403 0.766 0.611 0.35 1.337-0.229 0.399-0.481 0.785-0.719 1.179-0.23 0.38-0.549 0.444-0.933 0.263-0.209-0.099-0.413-0.21-0.614-0.323-1.14-0.64-2.376-1.004-3.669-1.109-0.755-0.061-1.519 0.085-2.187 0.497-1.136 0.701-1.168 1.966-0.083 2.736 0.519 0.368 1.107 0.581 1.701 0.787zM89.616 14.528c-0.456 0.478-0.462 0.517-0.037 1.073 2.036 2.672 4.081 5.337 6.117 8.009 0.228 0.299 0.658 0.563 0.449 1.007-0.204 0.434-0.673 0.333-1.064 0.336-0.53 0.005-1.061-0.027-1.589 0.009-0.588 0.040-0.991-0.171-1.348-0.642-1.412-1.864-2.854-3.705-4.29-5.55-1.159-1.49-0.986-1.404-1.893-0.571-0.606 0.598-1.367 1.375-1.65 1.774-0.116 0.209-0.212 0.424-0.284 0.649-0.159 0.618-0.105 1.265-0.105 1.265v0.826c0.032 0.349 0.017 0.706 0 1.062-0.005 0.109-0.011 0.219-0.015 0.328-0.026 0.627-0.214 0.822-0.836 0.846-0.595 0.023-1.192 0.024-1.787-0.001-0.666-0.028-0.776-0.144-0.781-0.852-0.012-1.675-0.005-3.351-0.005-5.026-0-2.135-0-4.271-0-6.406 0-3.581 0-7.161 0-10.742 0-0.263 0.008-0.526 0.003-0.788-0.008-0.409 0.217-0.62 0.599-0.632 0.694-0.022 1.391-0.034 2.085-0.004 0.492 0.021 0.677 0.244 0.721 0.756 0.019 0.229 0.006 0.46 0.006 0.69 0 4.238-0.005 8.476 0.010 12.713v0.807c0.039 0.065 0.102 0.118 0.201 0.152 0.305 0.102 0.526-0.331 0.748-0.56 2.291-2.369 4.58-4.74 6.851-7.128 0.37-0.389 0.748-0.587 1.296-0.556 0.726 0.041 1.456 0.014 2.184 0.011 0.31-0.001 0.615 0.023 0.756 0.348 0.14 0.322-0.152 0.475-0.324 0.651-1.268 1.296-2.548 2.581-3.819 3.874-0.739 0.752-1.472 1.511-2.2 2.274zM58.854 16.144c0.010-4.868 3.644-9.11 9.201-9.114 5.795-0.004 9.324 4.677 9.121 9.147 0.124 4.311-3.116 9.097-9.181 9.115-5.56 0.016-9.15-4.199-9.14-9.147zM73.767 16.245c0.157-2.887-2.265-6.4-6.177-6.093-1.984 0.156-3.454 1.065-4.434 2.726-0.885 1.502-1.115 3.134-0.675 4.842 0.998 3.877 5.051 5.515 8.242 3.799 2.086-1.122 2.954-2.993 3.044-5.275zM37.551 16.158c0.003-4.56 3.455-9.136 9.19-9.131 5.701 0.004 9.231 4.465 9.158 9.135 0.025 4.794-3.545 9.166-9.285 9.129-5.692-0.036-9.066-4.505-9.063-9.132zM50.95 20.327c1.823-2.076 2.051-5.195 0.562-7.521-1.108-1.732-2.681-2.675-5.081-2.657-1.174-0.066-2.416 0.433-3.504 1.4-2.386 2.122-2.637 6.155-0.462 8.661 2.428 2.798 6.413 2.476 8.485 0.117zM21.749 7.788c1.346-0.792 2.841-1.213 4.354-1.151 3.215 0.133 5.752 1.587 7.431 4.368 0.996 1.65 1.343 3.45 1.318 5.371-0.028 2.157-0.645 4.077-2.038 5.722-1.75 2.067-4.012 3.065-6.732 3.294-4.012 0.337-7.269-1.296-10.329-3.571-1.51-1.123-3.032-2.227-4.624-3.235-0.703-0.445-1.45-0.783-2.255-0.996-1.809-0.477-3.55 0.212-4.527 1.794-0.087 0.14-0.179 0.279-0.244 0.429-0.196 0.45-0.53 0.628-1.022 0.612-0.728-0.023-1.457 0.010-2.185-0.010-0.867-0.024-1.081-0.332-0.744-1.118 1.142-2.664 3.154-4.345 5.985-4.992 2.625-0.601 5.054-0.072 7.229 1.515 1.279 0.933 2.52 1.92 3.814 2.832 1.756 1.238 3.561 2.435 5.658 3.013 2.211 0.609 4.386 0.532 6.346-0.872 1.152-0.825 1.912-1.914 2.13-3.313 0.291-1.873 0.093-3.66-1.092-5.245-2.233-2.987-6.591-2.842-8.625 0.318-0.579 0.9-0.942 1.875-0.883 2.973 0.024 0.459 0.031 0.923-0.014 1.379-0.054 0.535-0.364 0.738-0.811 0.506-0.821-0.426-1.584-0.953-2.315-1.518-0.364-0.281-0.298-0.703-0.298-1.095-0-2.267 0-4.534 0.003-6.8 0-2.267-0.004-4.534 0.002-6.801 0.003-1.038 0.067-1.093 1.146-1.104 0.331-0.004 0.662-0.004 0.993 0 1.128 0.012 1.295 0.18 1.299 1.338 0.005 1.511 0.001 3.022 0.001 4.534 0 0.394-0.001 0.788 0 1.183 0.003 1.225 0.012 1.241 1.031 0.642z"></path>
</symbol>
</defs>
</svg>
